PathFileType	4	(X/Y/Z)	C:/Users/beibeiliu/ov580/test_trc/User2\sequence.14_training_dense_right.trc
DataRate	CameraRate	NumFrames	NumMarkers	Units	OrigDataRate	OrigDataStartFrame	OrigNumFrames
120	120	12	19	mm	120	368	420
Frame#	Time	ThumbCMC			ThumbMCP			ThumbIP			ThumbTip			IndexMCP			IndexPIP			IndexTip			MiddleMCP			MiddlePIP			MiddleTip			RingMCP			RingPIP			RingTip			PinkyMCP			PinkyPIP			PinkyTip			BackHand1			BackHand2			BackHand3	
		X0	Y0	Z0	X1	Y1	Z1	X2	Y2	Z2	X3	Y3	Z3	X4	Y4	Z4	X5	Y5	Z5	X6	Y6	Z6	X7	Y7	Z7	X8	Y8	Z8	X9	Y9	Z9	X10	Y10	Z10	X11	Y11	Z11	X12	Y12	Z12	X13	Y13	Z13	X14	Y14	Z14	X15	Y15	Z15	X16	Y16	Z16	X17	Y17	Z17	X18	Y18	Z18	
367	3.05833	75.1378	19.3208	67.2433	55.266	-5.04567	43.7802	52.3913	-31.0763	16.6989	71.1754	-48.4308	2.81538	102.767	25.9578	-10.106	98.6754	22.048	-40.886	98.0818	12.1515	-64.8367	112.01	-3.19589	-17.5011	93.0242	-31.0226	-24.9551	75.6132	-39.0177	15.8676	124.572	-21.6287	-8.46109	101.307	-47.19	-13.4043	81.6271	-48.8537	15.9723	149.287	-27.9569	8.81171	147.04	-38.6736	-14.5148	148.785	-49.3387	-35.6633	142.514	11.9706	41.5833	147.566	16.5439	76.8407	113.761	36.0764	55.3554	
368	3.06667	73.0161	19.0449	71.3721	56.8022	-9.63244	48.8401	49.5834	-35.1606	26.4381	67.1117	-57.37	9.63388	94.6794	20.0786	-9.84608	95.2034	11.2422	-35.89	92.0129	-1.62537	-62.1425	106.851	-10.9831	-11.4738	87.0168	-43.7962	-14.85	71.4641	-44.8378	23.5485	118.099	-28.7531	-2.70368	96.1736	-57.1294	-2.16721	78.1049	-56.1025	28.0222	143.161	-34.459	15.6237	141.653	-49.5055	-6.06012	144.356	-65.2336	-27.3788	139.816	7.07492	45.2115	145.204	18.4488	77.4585	117.433	32.5884	59.5325	
369	3.075	69.7686	17.9679	74.7235	51.6502	-9.2954	61.1415	46.6583	-40.4072	35.6735	58.4316	-62.791	22.3477	90.6143	8.64139	-8.81504	86.7519	-1.80469	-32.8753	83.6132	-19.0758	-57.9238	98.6389	-21.2586	-6.89695	75.0055	-51.0756	-4.45193	63.2428	-49.3962	32.5036	108.343	-40.797	1.38502	88.524	-60.9959	3.7898	70.5396	-60.3599	34.7714	132.309	-40.0275	19.1634	132.149	-58.3765	-0.814803	127.825	-78.7382	-23.0172	135.567	4.30539	48.3116	141.348	14.4476	74.2115	114.061	30.0919	57.9086	
370	3.08333	66.5902	19.254	78.1446	47.5741	-10.3812	68.5377	35.4236	-41.6512	47.2159	49.5651	-61.4428	35.8648	80.9082	4.08191	-2.05806	73.8591	-7.06209	-26.5642	66.284	-22.7801	-49.9044	86.7828	-27.8283	-1.78131	64.1052	-55.4551	4.70195	55.4589	-52.0145	44.0438	99.6081	-42.4562	8.84443	74.9798	-66.5656	15.7563	62.0817	-63.2751	48.8285	124.265	-46.2659	20.033	116.87	-63.9892	1.55717	111.947	-84.0259	-14.3196	128.584	-1.4477	47.182	139.14	12.1611	74.1674	107.737	27.9021	59.8157	
371	3.09167	69.4872	22.2835	84.9619	41.3782	-5.02857	73.8789	26.8521	-33.7807	59.6247	32.6815	-58.8773	46.9014	68.0277	7.63161	0.0443761	61.1664	-8.39699	-24.3641	51.216	-22.1105	-43.3127	74.8449	-26.4693	3.74016	45.1531	-51.2431	12.4135	41.7987	-46.2561	52.0846	86.6825	-42.112	14.128	62.4256	-64.866	21.0165	49.4254	-59.0272	54.1083	110.534	-48.7848	23.6633	102.698	-68.4433	7.4185	91.6433	-85.5427	-11.3107	123.496	-4.33071	45.8413	138.304	10.3719	75.7993	106.847	26.1789	57.5171	
372	3.1	65.4915	30.5991	87.7342	37.1631	4.63808	78.4324	17.3467	-23.6154	64.2477	20.4945	-50.0545	52.3411	64.5384	8.27177	1.78837	50.3233	0.744989	-21.5776	39.6626	-15.568	-41.4886	64.441	-24.3126	5.47886	35.989	-43.6419	13.2334	30	-39.3988	54.6028	77.0101	-41.25	15.9426	44.9262	-56.6356	24.3926	39.3515	-54.1942	56.2888	100.223	-51.3312	27.162	91.6614	-70.1626	12.9209	76.4098	-87.2247	-4.88466	117.515	-5.05816	48.7593	132.992	6.5193	75.4359	103.78	30.3438	57.3927	
373	3.10833	68.3	33.6927	84.4728	36.4211	14.9866	78.4711	14.1236	-10.8641	64.8098	11.0444	-37.9468	51.354	63.7654	15.0083	2.80487	48.0604	9.5621	-21.2114	36.067	-6.02445	-42.3276	58.1483	-15.4742	3.39012	30.8752	-36.0553	11.5571	23.9479	-31.3663	51.4706	67.4762	-35.1063	14.8323	36.924	-48.3656	23.6809	28.2116	-40.0769	57.4348	89.802	-50.3139	25.1918	80.2255	-67.9955	13.3484	62.615	-78.4577	-6.36042	111.619	-7.54469	47.4379	130.98	1.8709	73.0519	104.905	28.0147	58.6217	
374	3.11667	72.0316	40.8206	81.4571	36.0597	26.0489	76.5049	10.8201	2.60254	60.9895	7.65955	-25.5013	46.9063	67.8633	21.3636	2.57722	52.1073	16.0422	-22.423	36.5508	4.00819	-45.8842	58.6579	-11.3983	2.40046	26.3762	-24.0994	7.69522	20.5283	-20.5188	48.3312	62.7361	-31.8195	12.3643	33.965	-39.274	17.8226	23.3215	-30.9563	51.3906	85.1065	-47.5673	24.063	71.2299	-59.1769	10.0194	56.0385	-72.9822	-8.42399	115.553	-8.34023	49.915	132.618	0.296323	77.2435	109.96	28.2298	54.4343	
375	3.125	80.0699	43.6777	77.9991	40.7375	34.2116	69.3549	10.7103	14.4993	53.9851	7.2498	-13.267	43.1269	71.9881	25.3044	-1.2964	57.2418	25.049	-26.3476	39.6977	13.5766	-49.903	60.0784	-6.32191	-0.890247	25.7805	-12.1044	2.71766	17.6403	-6.85494	44.4547	60.1592	-24.5075	9.49727	28.1865	-30.3088	17.6696	20.3521	-14.8341	51.0247	79.5749	-40.8104	25.2533	63.762	-55.5772	7.64523	51.2615	-65.9799	-10.7383	112.315	-8.55929	46.8831	130.878	-2.36262	72.9635	113.746	29.6974	54.9328	
376	3.13333	86.4664	47.8589	69.7079	48.0726	47.7045	65.9275	17.1254	28.9837	48.4171	5.686	3.37487	39.1525	76.6154	28.1958	-10.0091	61.6241	27.2468	-34.0334	46.6761	23.8606	-51.9721	60.9172	-4.23627	-2.10601	24.57	-1.36969	1.83244	17.1492	12.9718	39.5849	54.786	-19.6133	6.89885	25.3336	-19.1105	14.2548	18.2247	-1.03311	42.7361	70.5476	-38.9677	22.6888	53.7155	-53.0885	8.01141	38.529	-60.6591	-10.9736	109.246	-14.7265	49.7562	129.821	-8.4167	75.4867	119.986	20.633	49.2953	
377	3.14167	97.1838	50.0808	67.5038	57.5498	54.7596	55.9651	26.9642	43.0585	44.583	8.95555	20.1405	35.7238	83.5629	27.3296	-12.8745	68.2667	25.7117	-37.4193	52.8565	22.1266	-55.5233	61.4867	0.0601403	-7.2056	24.7477	6.50167	0.0333765	21.0165	24.2513	32.9313	55.6075	-19.76	9.86342	21.1663	-6.65269	14.4356	20.5543	12.3103	41.0603	65.0272	-37.0615	27.2302	44.871	-46.5578	7.6444	33.7019	-50.5433	-8.67157	105.318	-17.814	47.0246	125.267	-16.7052	72.0334	126.197	17.5627	49.7319	
378	3.15	106.929	48.1978	63.0965	68.6964	63.9157	52.5041	34.4716	52.1206	37.6601	18.2592	33.6937	33.9464	92.7525	24.9021	-13.963	75.565	24.9045	-40.2117	58.9478	27.3042	-64.6312	65.9715	3.47895	-9.69343	30.6475	12.3982	-5.79033	27.2563	32.8344	28.0432	56.2511	-12.1011	6.35869	23.0846	1.42355	12.0575	27.0974	25.2433	37.8381	60.3532	-34.7639	25.2228	42.1169	-39.9771	7.92731	25.4926	-49.1813	-8.68977	104.566	-18.4649	45.1164	128.377	-16.1397	73.556	127.165	10.9812	45.4063	
